<?xml version="1.0" encoding="utf-8"?>
<!-- Generator: Adobe Illustrator 16.0.0, SVG Export Plug-In . SVG Version: 6.00 Build 0)  -->
<!DOCTYPE svg PUBLIC "-//W3C//DTD SVG 1.1//EN" "http://www.w3.org/Graphics/SVG/1.1/DTD/svg11.dtd">
<svg version="1.1" id="Layer_1" xmlns="http://www.w3.org/2000/svg" xmlns:xlink="http://www.w3.org/1999/xlink" x="0px" y="0px"
	 width="80px" height="80px" viewBox="0 0 80 80" enable-background="new 0 0 80 80" xml:space="preserve">
<path fill-rule="evenodd" clip-rule="evenodd" fill="#FFFFFF" d="M39.988,56.329c-4.692,0-9.383,0-14.074,0
	c-0.798,0-1.23-0.429-1.233-1.234c-0.004-1.17-0.001-2.34,0-3.509c0-0.783,0.182-1.06,0.915-1.351
	c2.334-0.928,4.624-1.951,6.792-3.223c1.034-0.606,2.007-1.32,2.997-2.001c0.205-0.141,0.358-0.354,0.542-0.525
	c0.427-0.403,0.32-0.925,0.309-1.423c-0.001-0.065-0.077-0.134-0.129-0.192c-0.98-1.066-1.613-2.326-2.061-3.691
	c-0.067-0.205-0.196-0.411-0.351-0.559c-0.888-0.843-1.061-2.167-0.418-3.209c0.101-0.163,0.163-0.378,0.167-0.57
	c0.025-1.25-0.01-2.501,0.048-3.749c0.128-2.777,1.842-4.729,4.586-5.227c1.729-0.314,3.454-0.286,5.117,0.355
	c1.896,0.73,2.985,2.166,3.223,4.146c0.162,1.359,0.106,2.746,0.13,4.12c0.007,0.393,0.052,0.74,0.259,1.103
	c0.586,1.02,0.332,2.277-0.54,3.069c-0.126,0.116-0.235,0.282-0.286,0.445c-0.444,1.405-1.099,2.69-2.096,3.788
	c-0.242,0.267-0.215,1.15,0.111,1.471c0.527,0.521,1.075,1.037,1.685,1.455c2.439,1.672,5.108,2.911,7.825,4.056
	c0.37,0.154,0.746,0.298,1.115,0.452c0.459,0.194,0.697,0.547,0.699,1.044c0.005,1.285,0.008,2.569-0.002,3.855
	c-0.006,0.672-0.472,1.1-1.185,1.101c-2.111,0.006-4.221,0.004-6.332,0.004C45.195,56.331,42.591,56.329,39.988,56.329z"/>
<path fill-rule="evenodd" clip-rule="evenodd" fill="#FFFFFF" d="M24.898,53.271c-3.583,0-7.164,0-10.746,0
	c-0.609-0.002-0.939-0.328-0.941-0.942c-0.003-0.894-0.002-1.787,0-2.68c0-0.598,0.139-0.81,0.698-1.031
	c1.781-0.709,3.531-1.49,5.185-2.46c0.79-0.465,1.532-1.008,2.289-1.528c0.156-0.108,0.273-0.271,0.413-0.401
	c0.326-0.308,0.244-0.706,0.236-1.086c-0.001-0.051-0.059-0.104-0.099-0.146c-0.748-0.816-1.231-1.777-1.574-2.819
	c-0.051-0.155-0.149-0.314-0.267-0.426c-0.678-0.644-0.811-1.654-0.319-2.451c0.078-0.124,0.124-0.289,0.127-0.435
	c0.02-0.954-0.007-1.91,0.037-2.862c0.098-2.121,1.407-3.611,3.502-3.991c1.32-0.239,2.637-0.217,3.906,0.271
	c1.449,0.557,2.28,1.653,2.461,3.166c0.124,1.038,0.081,2.096,0.099,3.146c0.006,0.299,0.039,0.564,0.198,0.842
	c0.448,0.778,0.253,1.738-0.412,2.343c-0.097,0.088-0.181,0.215-0.22,0.339c-0.338,1.073-0.839,2.054-1.601,2.894
	c-0.185,0.203-0.163,0.877,0.085,1.123c0.404,0.396,0.822,0.791,1.287,1.111c1.863,1.274,3.901,2.221,5.975,3.096
	c0.282,0.118,0.568,0.228,0.851,0.346c0.351,0.146,0.533,0.417,0.534,0.797c0.004,0.98,0.006,1.962,0,2.942
	c-0.004,0.515-0.36,0.84-0.906,0.842c-1.611,0.004-3.222,0.001-4.833,0.001C28.874,53.271,26.886,53.271,24.898,53.271z"/>
<path fill-rule="evenodd" clip-rule="evenodd" fill="#FFFFFF" d="M55.084,53.271c-3.581,0-7.163,0-10.746,0
	c-0.609-0.002-0.938-0.328-0.94-0.942c-0.003-0.894-0.002-1.787-0.001-2.68c0-0.598,0.138-0.81,0.699-1.031
	c1.781-0.709,3.531-1.49,5.185-2.46c0.789-0.465,1.531-1.008,2.288-1.528c0.156-0.108,0.274-0.271,0.413-0.401
	c0.326-0.308,0.245-0.706,0.235-1.086c-0.001-0.051-0.057-0.104-0.099-0.146c-0.748-0.816-1.23-1.777-1.573-2.819
	c-0.05-0.155-0.149-0.314-0.268-0.426c-0.678-0.644-0.81-1.654-0.318-2.451c0.077-0.124,0.124-0.289,0.127-0.435
	c0.02-0.954-0.007-1.91,0.036-2.862c0.098-2.121,1.407-3.611,3.502-3.991c1.319-0.239,2.637-0.217,3.906,0.271
	c1.449,0.557,2.28,1.653,2.462,3.166c0.124,1.038,0.081,2.096,0.099,3.146c0.006,0.299,0.039,0.564,0.197,0.842
	c0.447,0.778,0.253,1.738-0.412,2.343c-0.097,0.088-0.18,0.215-0.22,0.339c-0.338,1.073-0.839,2.054-1.601,2.894
	c-0.184,0.203-0.163,0.877,0.086,1.123c0.403,0.396,0.821,0.791,1.286,1.111c1.864,1.274,3.901,2.221,5.976,3.096
	c0.281,0.118,0.569,0.228,0.852,0.346c0.351,0.146,0.53,0.417,0.533,0.797c0.003,0.98,0.006,1.962,0,2.942
	c-0.006,0.515-0.361,0.84-0.907,0.842c-1.609,0.004-3.221,0.001-4.833,0.001C59.061,53.271,57.072,53.271,55.084,53.271z"/>
</svg>
